<svg xmlns="http://www.w3.org/2000/svg" width="18" height="18" viewBox="0 0 18 18">
    <g data-name="Group 8172">
        <g data-name="Rectangle 4159" style="fill:#fff;stroke:#d2d2d2">
            <rect width="18" height="18" rx="4" style="stroke:none"/>
            <rect x=".5" y=".5" width="17" height="17" rx="3.5" style="fill:none"/>
        </g>
        <path data-name="Path 2122" d="M35.589 35.037a4.292 4.292 0 0 1-1.236.338 2.157 2.157 0 0 0 .946-1.19 4.307 4.307 0 0 1-1.366.522 2.153 2.153 0 0 0-3.666 1.962 6.107 6.107 0 0 1-4.434-2.248 2.154 2.154 0 0 0 .666 2.872 2.136 2.136 0 0 1-.974-.269v.027a2.153 2.153 0 0 0 1.726 2.109 2.16 2.16 0 0 1-.971.037 2.154 2.154 0 0 0 2.01 1.494 4.343 4.343 0 0 1-3.185.891 6.118 6.118 0 0 0 9.418-5.154c0-.093 0-.186-.006-.278a4.362 4.362 0 0 0 1.074-1.113z" transform="translate(-21.346 -28.854)" style="fill:#1da1f2"/>
    </g>
</svg>
