<svg xmlns="http://www.w3.org/2000/svg"  viewBox="0 0 23.824 18.293">
    <defs>
        <style>
            .cls-1{fill:#424242}
        </style>
    </defs>
    <g id="Group_6566" transform="translate(-3.883 -21.503)">
        <path id="Path_6162" d="M60.323 38.677l-7.167-16.689c-.008-.018-.019-.033-.028-.05a.765.765 0 0 0-.044-.079.736.736 0 0 0-.048-.061c-.017-.02-.032-.041-.051-.06a.769.769 0 0 0-.063-.054c-.019-.015-.037-.031-.057-.045a.822.822 0 0 0-.082-.046c-.016-.008-.03-.019-.048-.026h-.009a.829.829 0 0 0-.092-.029c-.02-.005-.04-.013-.06-.017a.762.762 0 0 0-.082-.009c-.025 0-.049-.007-.073-.007s-.048 0-.072.007a.792.792 0 0 0-.083.009c-.021 0-.041.012-.062.018a.835.835 0 0 0-.09.028h-.01c-.018.008-.033.019-.051.028a.843.843 0 0 0-.078.043c-.022.015-.041.032-.061.048s-.041.032-.059.051a.769.769 0 0 0-.054.063c-.015.019-.031.037-.045.057a.736.736 0 0 0-.046.082c-.008.016-.019.03-.026.048l-4.063 9.459v.009l-3.1 7.219a.8.8 0 1 0 1.474.633l2.9-6.742h7.07l2.9 6.742a.8.8 0 0 0 .738.486.8.8 0 0 0 .737-1.119zm-10.75-7.714l2.845-6.625 2.846 6.625z" class="cls-1" transform="translate(-32.681)"/>
        <path id="Path_6163" d="M12.018 40.654c-.007-.017-.018-.03-.026-.047a.751.751 0 0 0-.046-.083c-.014-.021-.03-.039-.045-.057s-.034-.043-.054-.063a.765.765 0 0 0-.06-.052c-.02-.016-.039-.033-.06-.047a.837.837 0 0 0-.08-.044c-.017-.009-.032-.02-.049-.027h-.01a.831.831 0 0 0-.1-.03c-.018-.005-.036-.013-.055-.016a.769.769 0 0 0-.1-.011h-.052a.85.85 0 0 0-.1.009c-.019 0-.038 0-.056.006a.8.8 0 0 0-.078.023c-.025.007-.05.013-.073.023h-.012c-.021.009-.039.022-.058.032s-.047.024-.069.039a.743.743 0 0 0-.066.052c-.019.015-.038.03-.055.047a.839.839 0 0 0-.056.065l-.044.055a.744.744 0 0 0-.046.083c-.008.016-.019.03-.026.047l-2.603 6.063-1.99 4.631a.8.8 0 1 0 1.474.633L9.2 47.837h4.152l.3.693c.588-1.131.558-1.105.93-1.839zm-2.124 5.579L11.281 43l1.387 3.229z" class="cls-1" transform="translate(-2 -12.675)"/>
    </g>
</svg>
