<svg xmlns="http://www.w3.org/2000/svg" width="31.523" height="14.777" viewBox="0 0 31.523 14.777">
  <g id="Group_8097" data-name="Group 8097" transform="translate(-2346.478 56.232)">
    <g id="Path_28522" data-name="Path 28522" transform="translate(2346.478 -56.232)" fill="#f60101">
      <path d="M 24.13512802124023 14.27661609649658 L 7.388308525085449 14.27661609649658 C 3.590078830718994 14.27661609649658 0.4999987483024597 11.18653583526611 0.4999987483024597 7.3883056640625 C 0.4999987483024597 3.590075731277466 3.590078830718994 0.4999956786632538 7.388308525085449 0.4999956786632538 L 24.13512802124023 0.4999956786632538 C 27.93335914611816 0.4999956786632538 31.02343940734863 3.590075731277466 31.02343940734863 7.3883056640625 C 31.02343940734863 11.18653583526611 27.93335914611816 14.27661609649658 24.13512802124023 14.27661609649658 Z" stroke="none"/>
      <path d="M 7.388309478759766 0.999995231628418 C 3.865777969360352 0.999995231628418 0.9999980926513672 3.865776062011719 0.9999980926513672 7.3883056640625 C 0.9999980926513672 10.91083526611328 3.865777969360352 13.77661609649658 7.388309478759766 13.77661609649658 L 24.13512802124023 13.77661609649658 C 27.65765953063965 13.77661609649658 30.52343940734863 10.91083526611328 30.52343940734863 7.3883056640625 C 30.52343940734863 3.865776062011719 27.65765953063965 0.999995231628418 24.13512802124023 0.999995231628418 L 7.388309478759766 0.999995231628418 M 7.388309478759766 -4.76837158203125e-06 L 24.13512802124023 -4.76837158203125e-06 C 28.21557807922363 -4.76837158203125e-06 31.52343940734863 3.307855606079102 31.52343940734863 7.3883056640625 C 31.52343940734863 11.4687557220459 28.21557807922363 14.77661609649658 24.13512802124023 14.77661609649658 L 7.388309478759766 14.77661609649658 C 3.307859420776367 14.77661609649658 -1.9073486328125e-06 11.4687557220459 -1.9073486328125e-06 7.3883056640625 C -1.9073486328125e-06 3.307855606079102 3.307859420776367 -4.76837158203125e-06 7.388309478759766 -4.76837158203125e-06 Z" stroke="none" fill="#fff"/>
    </g>
    <path id="Path_28526" data-name="Path 28526" d="M6.278-6.53V0h-.7a.612.612,0,0,1-.266-.052A.642.642,0,0,1,5.1-.229L1.85-4.37q.013.158.02.311t.007.284V0H.684V-6.53h.711a1.351,1.351,0,0,1,.146.007.325.325,0,0,1,.11.031.427.427,0,0,1,.094.065.919.919,0,0,1,.1.108L5.121-2.16q-.018-.171-.027-.331t-.009-.3V-6.53ZM9-5.472v1.678h2.178v1.021H9v1.715h2.8V0H7.646V-6.53H11.8v1.058ZM21.6-6.53,19.57,0H18.351L17.014-4.271q-.031-.09-.063-.2t-.059-.23q-.027.121-.059.23t-.063.2L15.421,0H14.2l-2.02-6.53h1.134a.513.513,0,0,1,.295.081.369.369,0,0,1,.155.216l1.012,3.681q.036.153.074.331t.074.376q.041-.2.086-.378t.1-.328l1.179-3.681a.428.428,0,0,1,.155-.2.46.46,0,0,1,.29-.092h.4a.462.462,0,0,1,.286.083.5.5,0,0,1,.164.214l1.174,3.681q.054.144.1.313t.086.358q.036-.189.07-.358t.07-.313l1.012-3.681a.384.384,0,0,1,.153-.207.478.478,0,0,1,.293-.09Z" transform="translate(2351.109 -45.322)" fill="#fff"/>
  </g>
</svg>
