<svg data-name="Component 9 – 1" xmlns="http://www.w3.org/2000/svg" width="12.035" height="12.717" viewBox="0 0 12.035 12.717">
    <g data-name="Group 9941">
        <path data-name="Path 29012" d="M95.7 19.2a1.326 1.326 0 0 1-.342-1.292 1.2 1.2 0 0 0-.114-.887 1.142 1.142 0 0 0-.71-.545 1.357 1.357 0 0 1-.95-.95 1.172 1.172 0 0 0-1.432-.824 1.332 1.332 0 0 1-1.292-.355 1.163 1.163 0 0 0-1.647 0 1.34 1.34 0 0 1-1.305.342 1.172 1.172 0 0 0-1.432.824 1.357 1.357 0 0 1-.95.95 1.172 1.172 0 0 0-.826 1.427 1.332 1.332 0 0 1-.355 1.292 1.162 1.162 0 0 0 0 1.647 1.326 1.326 0 0 1 .342 1.292 1.2 1.2 0 0 0 .114.887 1.142 1.142 0 0 0 .71.545 1.357 1.357 0 0 1 .95.95 1.171 1.171 0 0 0 1.432.824 1.332 1.332 0 0 1 1.293.355 1.172 1.172 0 0 0 .824.342 1.15 1.15 0 0 0 .824-.342 1.326 1.326 0 0 1 1.293-.342 1.172 1.172 0 0 0 1.432-.824 1.357 1.357 0 0 1 .95-.95 1.165 1.165 0 0 0 .824-1.432 1.355 1.355 0 0 1 .342-1.293A1.141 1.141 0 0 0 95.7 19.2z" transform="translate(-84.003 -13.309)" style="fill:#880101"/>
        <g data-name="Group 9940">
            <path data-name="Path 29013" d="M86.694 15.344a1.347 1.347 0 1 0-1.35 1.344 1.345 1.345 0 0 0 1.35-1.344zm-1.855 0a.5.5 0 1 1 .5.5.5.5 0 0 1-.5-.5z" transform="translate(-81.096 -10.406)" style="fill:#fff"/>
            <path data-name="Path 29014" d="M387.744 315.84a1.344 1.344 0 1 0 1.344 1.344 1.345 1.345 0 0 0-1.344-1.344zm0 1.855a.5.5 0 1 1 .5-.5.509.509 0 0 1-.5.5z" transform="translate(-379.957 -308.713)" style="fill:#fff"/>
            <path data-name="Path 29015" d="M123.053 47.861a.423.423 0 0 0-.6 0l-4.595 4.595a.423.423 0 0 0 0 .6.411.411 0 0 0 .59 0l4.595-4.595a.417.417 0 0 0 .007-.6z" transform="translate(-114.44 -43.749)" style="fill:#fff"/>
        </g>
    </g>
    <g data-name="Group 9942">
        <path data-name="Path 29012" d="M95.7 19.2a1.326 1.326 0 0 1-.342-1.292 1.2 1.2 0 0 0-.114-.887 1.142 1.142 0 0 0-.71-.545 1.357 1.357 0 0 1-.95-.95 1.172 1.172 0 0 0-1.432-.824 1.332 1.332 0 0 1-1.292-.355 1.163 1.163 0 0 0-1.647 0 1.34 1.34 0 0 1-1.305.342 1.172 1.172 0 0 0-1.432.824 1.357 1.357 0 0 1-.95.95 1.172 1.172 0 0 0-.826 1.427 1.332 1.332 0 0 1-.355 1.292 1.162 1.162 0 0 0 0 1.647 1.326 1.326 0 0 1 .342 1.292 1.2 1.2 0 0 0 .114.887 1.142 1.142 0 0 0 .71.545 1.357 1.357 0 0 1 .95.95 1.171 1.171 0 0 0 1.432.824 1.332 1.332 0 0 1 1.293.355 1.172 1.172 0 0 0 .824.342 1.15 1.15 0 0 0 .824-.342 1.326 1.326 0 0 1 1.293-.342 1.172 1.172 0 0 0 1.432-.824 1.357 1.357 0 0 1 .95-.95 1.165 1.165 0 0 0 .824-1.432 1.355 1.355 0 0 1 .342-1.293A1.141 1.141 0 0 0 95.7 19.2z" transform="translate(-84.003 -14)" style="fill:#f60101"/>
        <g data-name="Group 9940">
            <path data-name="Path 29013" d="M86.694 15.344a1.347 1.347 0 1 0-1.35 1.344 1.345 1.345 0 0 0 1.35-1.344zm-1.855 0a.5.5 0 1 1 .5.5.5.5 0 0 1-.5-.5z" transform="translate(-81.096 -11.097)" style="fill:#fff"/>
            <path data-name="Path 29014" d="M387.744 315.84a1.344 1.344 0 1 0 1.344 1.344 1.345 1.345 0 0 0-1.344-1.344zm0 1.855a.5.5 0 1 1 .5-.5.509.509 0 0 1-.5.5z" transform="translate(-379.957 -309.404)" style="fill:#fff"/>
            <path data-name="Path 29015" d="M123.053 47.861a.423.423 0 0 0-.6 0l-4.595 4.595a.423.423 0 0 0 0 .6.411.411 0 0 0 .59 0l4.595-4.595a.417.417 0 0 0 .007-.6z" transform="translate(-114.44 -44.44)" style="fill:#fff"/>
        </g>
    </g>
</svg>
