<svg data-name="Component 8 – 1" xmlns="http://www.w3.org/2000/svg" width="18.569" height="13.996" viewBox="0 0 18.569 13.996">
    <path data-name="Path 29096" d="M0 3.554a5.356 5.356 0 0 0 .655.206 3.049 3.049 0 0 1 2.232 2.414 5.348 5.348 0 0 0 .25.933 5.348 5.348 0 0 0 .25-.933A3.049 3.049 0 0 1 5.618 3.76a5.324 5.324 0 0 0 .655-.206s-.2-.047-.5-.112A3.051 3.051 0 0 1 3.4 1a5.506 5.506 0 0 0-.263-1 5.509 5.509 0 0 0-.262 1A3.053 3.053 0 0 1 .514 3.439 30.83 30.83 0 0 0 0 3.554z" transform="rotate(37 4.648 13.89)" style="fill:#ffba39"/>
    <path data-name="Path 29163" d="M0 2.693a4.054 4.054 0 0 0 .5.156 2.31 2.31 0 0 1 1.687 1.829 4.052 4.052 0 0 0 .189.707 4.052 4.052 0 0 0 .189-.707 2.31 2.31 0 0 1 1.691-1.829 4.03 4.03 0 0 0 .5-.156s-.154-.036-.382-.085A2.311 2.311 0 0 1 2.575.76a4.172 4.172 0 0 0-.2-.76 4.174 4.174 0 0 0-.2.759A2.313 2.313 0 0 1 .389 2.606c-.231.05-.389.087-.389.087z" transform="rotate(79 3.795 14.864)" style="fill:#ffba39"/>
    <path data-name="Path 29164" d="M0 2.815a4.227 4.227 0 0 0 .518.163A2.415 2.415 0 0 1 2.286 4.89a4.234 4.234 0 0 0 .2.739 4.234 4.234 0 0 0 .2-.739 2.415 2.415 0 0 1 1.763-1.912 4.2 4.2 0 0 0 .519-.163s-.161-.037-.4-.088A2.416 2.416 0 0 1 2.692.795 4.361 4.361 0 0 0 2.484 0a4.364 4.364 0 0 0-.207.793 2.418 2.418 0 0 1-1.87 1.931C.165 2.776 0 2.815 0 2.815z" transform="rotate(-3 14.244 .373)" style="fill:#ffba39"/>
</svg>
