<svg data-name="Component 62 – 1" xmlns="http://www.w3.org/2000/svg" width="50" height="19" viewBox="0 0 50 19">
    <path data-name="Path 39435" d="M2.31-6.824v2.115h2.669v1.092H2.31v2.158H5.7v1.134H.886v-7.628H5.7v1.129zm4.39 2.77h2.737v1.087H6.7zm6.663-.063a2.138 2.138 0 0 0 .681-.1 1.289 1.289 0 0 0 .483-.28 1.132 1.132 0 0 0 .288-.443 1.7 1.7 0 0 0 .095-.583 1.538 1.538 0 0 0-.095-.554 1.1 1.1 0 0 0-.285-.422 1.267 1.267 0 0 0-.48-.266 2.271 2.271 0 0 0-.686-.092h-1.06v2.738zm0-3.835a4.354 4.354 0 0 1 1.324.179 2.549 2.549 0 0 1 .923.5 1.987 1.987 0 0 1 .541.77 2.653 2.653 0 0 1 .177.981 2.711 2.711 0 0 1-.185 1.016 2.107 2.107 0 0 1-.554.794 2.575 2.575 0 0 1-.926.517 4.136 4.136 0 0 1-1.3.185h-1.06v2.685h-1.415v-7.628zm6.542 5.318a7.186 7.186 0 0 0-.95.1 2.531 2.531 0 0 0-.617.182.811.811 0 0 0-.332.258.562.562 0 0 0-.1.322.566.566 0 0 0 .2.491.88.88 0 0 0 .53.148 1.546 1.546 0 0 0 .694-.145 2.06 2.06 0 0 0 .572-.441zm-2.982-2.349a3.212 3.212 0 0 1 2.247-.855 2.2 2.2 0 0 1 .849.156 1.8 1.8 0 0 1 .633.433 1.851 1.851 0 0 1 .393.662 2.544 2.544 0 0 1 .135.844v3.418h-.591A.6.6 0 0 1 20.3-.38a.384.384 0 0 1-.154-.22l-.116-.39a4.71 4.71 0 0 1-.4.324 2.36 2.36 0 0 1-.406.235 2.182 2.182 0 0 1-.451.145 2.6 2.6 0 0 1-.53.05 2.078 2.078 0 0 1-.633-.092 1.391 1.391 0 0 1-.5-.277 1.243 1.243 0 0 1-.327-.459 1.628 1.628 0 0 1-.116-.638 1.271 1.271 0 0 1 .069-.409 1.2 1.2 0 0 1 .224-.388 1.867 1.867 0 0 1 .4-.348 2.623 2.623 0 0 1 .609-.285 5.264 5.264 0 0 1 .841-.2 8.4 8.4 0 0 1 1.1-.092v-.317a1.185 1.185 0 0 0-.232-.8.849.849 0 0 0-.67-.261 1.591 1.591 0 0 0-.525.074 2.16 2.16 0 0 0-.367.166l-.288.166a.569.569 0 0 1-.288.074.376.376 0 0 1-.232-.071.6.6 0 0 1-.153-.166zm6.784 3.255a1.282 1.282 0 0 0 .483.38 1.437 1.437 0 0 0 .567.111 1.245 1.245 0 0 0 .533-.111 1.044 1.044 0 0 0 .4-.338 1.67 1.67 0 0 0 .256-.572 3.271 3.271 0 0 0 .09-.815 3.618 3.618 0 0 0-.076-.8 1.554 1.554 0 0 0-.219-.535.865.865 0 0 0-.346-.3 1.078 1.078 0 0 0-.462-.095 1.317 1.317 0 0 0-.691.171 2.1 2.1 0 0 0-.538.483zM23.639-5a2.823 2.823 0 0 1 .754-.607 2.026 2.026 0 0 1 .992-.232 1.775 1.775 0 0 1 .81.185 1.817 1.817 0 0 1 .633.535 2.568 2.568 0 0 1 .411.865 4.353 4.353 0 0 1 .145 1.179 3.708 3.708 0 0 1-.164 1.124 2.75 2.75 0 0 1-.467.9 2.157 2.157 0 0 1-.733.593 2.134 2.134 0 0 1-.963.214 1.94 1.94 0 0 1-.775-.14 1.9 1.9 0 0 1-.575-.388v2.215H22.4v-7.18h.8a.32.32 0 0 1 .332.237zm8.246 1.345a1.568 1.568 0 0 0-.071-.477 1.135 1.135 0 0 0-.214-.393.994.994 0 0 0-.361-.266 1.24 1.24 0 0 0-.509-.1 1.207 1.207 0 0 0-.889.322 1.578 1.578 0 0 0-.414.913zm-2.485.788a2.564 2.564 0 0 0 .148.72 1.473 1.473 0 0 0 .306.5 1.2 1.2 0 0 0 .451.3 1.639 1.639 0 0 0 .578.1 1.791 1.791 0 0 0 .546-.074 2.56 2.56 0 0 0 .4-.164q.171-.09.3-.164a.5.5 0 0 1 .251-.074.27.27 0 0 1 .243.121l.377.47a2.172 2.172 0 0 1-.485.425 2.722 2.722 0 0 1-.562.274 3.071 3.071 0 0 1-.6.145 4.268 4.268 0 0 1-.588.042 2.891 2.891 0 0 1-1.05-.187 2.35 2.35 0 0 1-.844-.554 2.6 2.6 0 0 1-.564-.907 3.511 3.511 0 0 1-.207-1.253 3 3 0 0 1 .179-1.042 2.505 2.505 0 0 1 .514-.849 2.421 2.421 0 0 1 .818-.572 2.693 2.693 0 0 1 1.089-.212 2.65 2.65 0 0 1 .944.164 2.057 2.057 0 0 1 .744.477 2.212 2.212 0 0 1 .488.77 2.87 2.87 0 0 1 .177 1.042.846.846 0 0 1-.063.4.262.262 0 0 1-.243.1zM35.261-4.8a2.334 2.334 0 0 1 .6-.762 1.282 1.282 0 0 1 .823-.277 1.007 1.007 0 0 1 .6.164L37.2-4.7a.252.252 0 0 1-.076.135.211.211 0 0 1-.135.04 1.537 1.537 0 0 1-.235-.026 1.814 1.814 0 0 0-.3-.026 1.092 1.092 0 0 0-.385.063.969.969 0 0 0-.3.182 1.241 1.241 0 0 0-.237.288 2.806 2.806 0 0 0-.193.385v3.334h-1.3v-5.412h.761a.421.421 0 0 1 .28.071.419.419 0 0 1 .106.256z" transform="translate(6.139 12.555)" style="fill:#fff"/>
    <g data-name="Rectangle 12304" style="stroke:#fff;fill:none">
        <rect width="50" height="19" rx="4" style="stroke:none"/>
        <rect x=".5" y=".5" width="49" height="18" rx="3.5" style="fill:none"/>
    </g>
</svg>
