<svg width="369" height="89" viewBox="0 0 369 89" fill="none" xmlns="http://www.w3.org/2000/svg">
<rect width="369" height="89" fill="white"/>
<path d="M87.7396 54.3751C87.736 54.877 87.534 55.3571 87.1779 55.7107C86.8217 56.0643 86.3401 56.2627 85.8382 56.2627H45.5962C45.0929 56.2649 44.6092 56.0675 44.2512 55.7136C43.8932 55.3598 43.6902 54.8785 43.6865 54.3751V14.8876C43.6902 14.3857 43.8921 13.9056 44.2483 13.552C44.6045 13.1984 45.086 13 45.5879 13H85.8299C86.3333 12.9978 86.8169 13.1953 87.1749 13.5491C87.5329 13.9029 87.736 14.3843 87.7396 14.8876V54.3751Z" fill="#0C9D58"/>
<path opacity="0.2" d="M87.7517 23.1372L72.6676 21.2026L87.7517 25.2542V23.1372ZM66.452 15.0479L43.6074 25.2486L68.8537 16.0594V16.0345C68.6624 15.5858 68.3011 15.2311 67.8489 15.0482C67.3966 14.8654 66.8904 14.8692 66.441 15.0589L66.452 15.0479Z" fill="#004D40"/>
<path opacity="0.2" d="M85.8382 13.0055H45.5962C45.0929 13.0033 44.6092 13.2008 44.2512 13.5546C43.8932 13.9084 43.6902 14.3898 43.6865 14.8931V15.3159C43.6902 14.8141 43.8921 14.334 44.2483 13.9804C44.6045 13.6268 45.086 13.4283 45.5879 13.4284H85.8299C86.3333 13.4261 86.8169 13.6236 87.1749 13.9774C87.5329 14.3313 87.736 14.8126 87.7396 15.3159V14.8931C87.736 14.3912 87.534 13.9111 87.1779 13.5575C86.8217 13.2039 86.3401 13.0055 85.8382 13.0055V13.0055Z" fill="white"/>
<path d="M53.4554 53.1645C53.3115 53.6296 53.3575 54.1327 53.5832 54.564C53.809 54.9953 54.1962 55.3198 54.6603 55.4667L91.9369 65.4933C92.4109 65.5984 92.9073 65.5122 93.3181 65.2535C93.729 64.9948 94.0212 64.5844 94.1313 64.1115L102.911 31.3342C103.056 30.8706 103.011 30.3687 102.788 29.9377C102.564 29.5066 102.18 29.1812 101.718 29.032L64.4299 18.9999C63.9559 18.8948 63.4595 18.981 63.0487 19.2397C62.6378 19.4984 62.3456 19.9088 62.2356 20.3817L53.4554 53.1645Z" fill="#EA4335"/>
<path opacity="0.2" d="M94.5147 43.0246L96.4742 54.9472L94.5147 62.2681V43.0246ZM72.8281 21.6973L74.5858 22.1726L75.6912 29.524L72.8281 21.6973Z" fill="#3E2723"/>
<path opacity="0.2" d="M101.719 29.0238L64.4427 18.9972C63.9686 18.8921 63.4723 18.9783 63.0614 19.237C62.6506 19.4957 62.3584 19.9061 62.2483 20.379L53.4542 53.1563C53.4588 53.2133 53.4483 53.2705 53.4238 53.3221L62.1433 20.7991C62.2533 20.3262 62.5455 19.9158 62.9564 19.6571C63.3672 19.3984 63.8636 19.3122 64.3376 19.4173L101.614 29.4439C102.046 29.5809 102.411 29.8734 102.639 30.2647C102.867 30.656 102.941 31.118 102.847 31.5609L102.913 31.3122C103.051 30.8515 103.003 30.3552 102.78 29.9293C102.557 29.5033 102.176 29.1814 101.719 29.0321V29.0238Z" fill="white"/>
<path d="M82.8174 49.1271C83.0014 49.578 82.9994 50.0834 82.8119 50.5329C82.6245 50.9823 82.2668 51.3394 81.817 51.526L42.476 65.8501C42.012 65.9972 41.5086 65.9548 41.0758 65.7322C40.6429 65.5096 40.3157 65.1248 40.1655 64.6618L28.558 32.7772C28.376 32.3265 28.3793 31.8222 28.5671 31.374C28.755 30.9258 29.1123 30.5699 29.5613 30.3838L68.8995 16.0651C69.1296 15.9906 69.3722 15.9622 69.6132 15.9814C69.8543 16.0007 70.0893 16.0673 70.3046 16.1774C70.52 16.2875 70.7115 16.439 70.8683 16.6232C71.025 16.8073 71.144 17.0206 71.2183 17.2508L82.8257 49.1354L82.8174 49.1271Z" fill="#FFC107"/>
<path opacity="0.2" d="M28.707 33.161C28.5248 32.7108 28.5277 32.2067 28.715 31.7586C28.9023 31.3104 29.259 30.9543 29.7075 30.7677L69.0457 16.449C69.5039 16.3042 70.0006 16.3446 70.4294 16.5616C70.8581 16.7786 71.1849 17.1548 71.3396 17.6098L71.2207 17.2339C71.0705 16.7709 70.7433 16.3861 70.3105 16.1635C69.8776 15.9408 69.3743 15.8984 68.9103 16.0455L29.5637 30.3669C29.1139 30.5536 28.7562 30.9106 28.5688 31.36C28.3813 31.8095 28.3794 32.3149 28.5633 32.7658L40.1708 64.6504V64.6808L28.707 33.161Z" fill="white"/>
<path d="M88.9908 29.5187H42.4365C39.3839 29.5187 36.9092 31.9934 36.9092 35.046V68.47C36.9092 71.5227 39.3839 73.9974 42.4365 73.9974H88.9908C92.0435 73.9974 94.5182 71.5227 94.5182 68.47V35.046C94.5182 31.9934 92.0435 29.5187 88.9908 29.5187Z" fill="#4285F4"/>
<path d="M68.1484 41.3804H84.2469C84.3583 41.3804 84.4686 41.4023 84.5716 41.445C84.6745 41.4876 84.7681 41.5501 84.8468 41.6289C84.9256 41.7077 84.9882 41.8012 85.0308 41.9041C85.0734 42.0071 85.0953 42.1174 85.0953 42.2288V44.7714C85.0953 44.8828 85.0734 44.9932 85.0308 45.0961C84.9882 45.199 84.9256 45.2926 84.8468 45.3714C84.7681 45.4502 84.6745 45.5127 84.5716 45.5553C84.4686 45.5979 84.3583 45.6199 84.2469 45.6199H68.1484V41.3832V41.3804ZM68.1484 57.4788H84.2469C84.3583 57.4788 84.4686 57.5008 84.5716 57.5434C84.6745 57.5861 84.7681 57.6485 84.8468 57.7273C84.9256 57.8061 84.9882 57.8997 85.0308 58.0026C85.0734 58.1056 85.0953 58.2159 85.0953 58.3273V60.8699C85.0946 61.0944 85.0049 61.3095 84.8458 61.468C84.6868 61.6265 84.4715 61.7156 84.2469 61.7156H68.1484V57.4788ZM68.1484 49.4393H86.7867C87.0112 49.4393 87.2266 49.5283 87.3857 49.6868C87.5447 49.8453 87.6344 50.0604 87.6352 50.285V52.8275C87.6352 53.0526 87.5458 53.2684 87.3867 53.4275C87.2276 53.5866 87.0117 53.676 86.7867 53.676H68.1484V49.4393Z" fill="white"/>
<path opacity="0.2" d="M92.6103 73.5772H38.8317C38.3262 73.5765 37.8416 73.3754 37.4841 73.0179C37.1267 72.6604 36.9255 72.1758 36.9248 71.6703V72.0959C36.9263 72.6009 37.1277 73.0848 37.4851 73.4417C37.8425 73.7986 38.3267 73.9993 38.8317 74H92.6103C93.1153 73.9993 93.5995 73.7986 93.9569 73.4417C94.3143 73.0848 94.5158 72.6009 94.5172 72.0959V71.6703C94.5165 72.1758 94.3153 72.6604 93.9579 73.0179C93.6004 73.3754 93.1158 73.5765 92.6103 73.5772V73.5772Z" fill="#1A237E"/>
<path opacity="0.2" d="M38.8161 29.9415H92.6057C93.1112 29.9423 93.5958 30.1434 93.9533 30.5009C94.3108 30.8584 94.5119 31.343 94.5126 31.8485V31.4256C94.5112 30.9206 94.3097 30.4367 93.9523 30.0798C93.5949 29.723 93.1107 29.5222 92.6057 29.5215H38.8161C38.3111 29.5222 37.8269 29.723 37.4695 30.0798C37.1121 30.4367 36.9106 30.9206 36.9092 31.4256V31.8485C36.9099 31.343 37.1111 30.8584 37.4685 30.5009C37.826 30.1434 38.3106 29.9423 38.8161 29.9415V29.9415Z" fill="white"/>
<path d="M53.7493 49.8538V53.6649H59.2297C58.9541 54.8826 58.2476 55.9597 57.2405 56.6976C56.2334 57.4356 54.9935 57.7847 53.7493 57.6805C52.9317 57.6979 52.1189 57.5518 51.3585 57.251C50.5981 56.9501 49.9054 56.5004 49.3211 55.9283C48.7367 55.3562 48.2725 54.6733 47.9555 53.9194C47.6386 53.1656 47.4753 52.356 47.4753 51.5383C47.4753 50.7205 47.6386 49.9109 47.9555 49.1571C48.2725 48.4032 48.7367 47.7203 49.3211 47.1482C49.9054 46.5761 50.5981 46.1264 51.3585 45.8255C52.1189 45.5247 52.9317 45.3786 53.7493 45.396C55.2071 45.3684 56.6164 45.92 57.6682 46.9298L60.5701 44.0307C58.7267 42.2958 56.2805 41.3462 53.7493 41.3831C52.4001 41.3609 51.06 41.6074 49.8071 42.1083C48.5542 42.6092 47.4136 43.3545 46.4516 44.3007C45.4896 45.2469 44.7256 46.3752 44.2041 47.6196C43.6826 48.8641 43.4141 50.2 43.4141 51.5493C43.4141 52.8986 43.6826 54.2345 44.2041 55.479C44.7256 56.7234 45.4896 57.8517 46.4516 58.7979C47.4136 59.7441 48.5542 60.4894 49.8071 60.9903C51.06 61.4913 52.4001 61.7377 53.7493 61.7155C55.0613 61.7713 56.3703 61.5504 57.5914 61.0673C58.8125 60.5843 59.9183 59.8497 60.837 58.9114C61.7557 57.9731 62.4668 56.8521 62.9241 55.6212C63.3814 54.3902 63.5746 53.0768 63.4913 51.7663C63.4898 51.1182 63.4362 50.4712 63.331 49.8317L53.7493 49.8538Z" fill="white"/>
<path opacity="0.2" d="M53.8525 53.6648V54.0904H59.2307C59.2694 53.9522 59.3034 53.8103 59.3329 53.6648H53.8525Z" fill="#1A237E"/>
<path opacity="0.2" d="M53.8541 61.7018C51.1949 61.7024 48.6413 60.6612 46.7406 58.8014C44.84 56.9416 43.7436 54.4111 43.6865 51.7525V51.9653C43.6865 54.6619 44.7577 57.2481 46.6645 59.1549C48.5713 61.0617 51.1575 62.1329 53.8541 62.1329C55.1649 62.1885 56.4727 61.968 57.6927 61.4857C58.9128 61.0034 60.0179 60.2702 60.9364 59.3334C61.8549 58.3967 62.5663 57.2774 63.0245 56.0481C63.4827 54.8188 63.6774 53.5069 63.5961 52.1975V52.051C63.6384 53.3373 63.4145 54.6184 62.9386 55.8142C62.4628 57.01 61.7451 58.0946 60.8305 59.0001C59.9159 59.9056 58.8242 60.6125 57.6237 61.0764C56.4233 61.5403 55.1399 61.7513 53.8541 61.6962V61.7018ZM57.7564 46.9188C56.7076 45.9159 55.3051 45.3676 53.8541 45.3933C52.2438 45.4187 50.7083 46.0774 49.5801 47.2268C48.452 48.3761 47.822 49.9236 47.8265 51.5342V51.7442C47.8739 50.172 48.5253 48.6785 49.6452 47.574C50.7651 46.4695 52.2675 45.839 53.8403 45.8134C55.2912 45.788 56.6936 46.3362 57.7426 47.339L60.8573 44.2242C60.7854 44.1579 60.7053 44.0971 60.6279 44.0308L57.7454 46.9133L57.7564 46.9188ZM85.0948 45.1832V44.7576C85.0948 44.9826 85.0054 45.1985 84.8463 45.3576C84.6872 45.5167 84.4714 45.6061 84.2463 45.6061H68.1506V46.0317H84.238C84.4626 46.0309 84.6777 45.9412 84.8362 45.7822C84.9947 45.6231 85.0837 45.4077 85.0837 45.1832H85.0948ZM84.238 61.7018H68.1424V62.1274H84.238C84.4631 62.1274 84.6789 62.038 84.838 61.8789C84.9971 61.7198 85.0865 61.5039 85.0865 61.2789V60.8726C85.0865 61.0977 84.9971 61.3135 84.838 61.4726C84.6789 61.6318 84.4631 61.7211 84.238 61.7211V61.7018ZM86.7806 53.6622H68.1424V54.085H86.7806C87.0057 54.085 87.2215 53.9957 87.3806 53.8366C87.5397 53.6775 87.6291 53.4616 87.6291 53.2366V52.811C87.6306 52.9229 87.6099 53.034 87.5682 53.1378C87.5266 53.2417 87.4648 53.3363 87.3865 53.4161C87.3081 53.496 87.2148 53.5596 87.1117 53.6033C87.0087 53.6469 86.8981 53.6698 86.7862 53.6705L86.7806 53.6622Z" fill="#1A237E"/>
<path d="M101.721 29.0349L87.7365 25.2957V14.8876C87.7329 14.3857 87.5309 13.9056 87.1747 13.552C86.8186 13.1984 86.337 13 85.8351 13H45.5903C45.087 12.9978 44.6033 13.1953 44.2454 13.5491C43.8874 13.9029 43.6843 14.3843 43.6806 14.8876V25.2238L29.5637 30.367C29.1139 30.5536 28.7562 30.9107 28.5688 31.3601C28.3813 31.8096 28.3794 32.315 28.5633 32.7659L36.9096 55.7045V72.0903C36.9103 72.5959 37.1115 73.0805 37.469 73.4379C37.8264 73.7954 38.311 73.9966 38.8166 73.9973H92.6061C93.1117 73.9966 93.5963 73.7954 93.9537 73.4379C94.3112 73.0805 94.5123 72.5959 94.5131 72.0903V62.6938L102.915 31.3454C103.061 30.8803 103.018 30.376 102.794 29.943C102.569 29.5099 102.183 29.1834 101.718 29.0349H101.721Z" fill="url(#paint0_radial_1105_258)"/>
<path d="M172.938 62.0002C172.938 67.4135 168.715 71.4026 163.531 71.4026C158.348 71.4026 154.124 67.4135 154.124 62.0002C154.124 56.5486 158.348 52.5978 163.531 52.5978C168.715 52.5978 172.938 56.5486 172.938 62.0002ZM168.82 62.0002C168.82 58.6173 166.372 56.3028 163.531 56.3028C160.69 56.3028 158.242 58.6173 158.242 62.0002C158.242 65.3491 160.69 67.6976 163.531 67.6976C166.372 67.6976 168.82 65.3448 168.82 62.0002Z" fill="#EA4335"/>
<path d="M193.232 62.0002C193.232 67.4135 189.009 71.4026 183.825 71.4026C178.642 71.4026 174.418 67.4135 174.418 62.0002C174.418 56.5529 178.642 52.5978 183.825 52.5978C189.009 52.5978 193.232 56.5486 193.232 62.0002ZM189.114 62.0002C189.114 58.6173 186.666 56.3028 183.825 56.3028C180.984 56.3028 178.536 58.6173 178.536 62.0002C178.536 65.3491 180.984 67.6976 183.825 67.6976C186.666 67.6976 189.114 65.3448 189.114 62.0002Z" fill="#FBBC05"/>
<path d="M212.681 53.1658V70.046C212.681 76.9897 208.597 79.8257 203.769 79.8257C199.224 79.8257 196.488 76.7778 195.457 74.2852L199.042 72.7888C199.68 74.3191 201.245 76.125 203.765 76.125C206.855 76.125 208.77 74.2131 208.77 70.6141V69.2618H208.627C207.705 70.4021 205.929 71.3983 203.688 71.3983C199 71.3983 194.704 67.3033 194.704 62.0341C194.704 56.7267 199 52.5978 203.688 52.5978C205.925 52.5978 207.701 53.594 208.627 54.7004H208.77V53.1701H212.681V53.1658ZM209.062 62.0341C209.062 58.7233 206.859 56.3028 204.056 56.3028C201.215 56.3028 198.835 58.7233 198.835 62.0341C198.835 65.3109 201.215 67.6976 204.056 67.6976C206.859 67.6976 209.062 65.3109 209.062 62.0341Z" fill="#4285F4"/>
<path d="M219.129 43.2717V70.8261H215.112V43.2717H219.129Z" fill="#34A853"/>
<path d="M234.78 65.0948L237.976 67.2313C236.945 68.7617 234.459 71.3984 230.163 71.3984C224.836 71.3984 220.857 67.2695 220.857 61.996C220.857 56.4046 224.87 52.5936 229.702 52.5936C234.569 52.5936 236.949 56.4767 237.727 58.575L238.154 59.6433L225.618 64.849C226.578 66.7354 228.07 67.6976 230.163 67.6976C232.26 67.6976 233.715 66.6633 234.78 65.0948ZM224.942 61.712L233.321 58.2232C232.861 57.049 231.474 56.2308 229.842 56.2308C227.749 56.2308 224.836 58.0833 224.942 61.712V61.712Z" fill="#EA4335"/>
<path d="M138.921 59.5542V55.5652H152.327C152.458 56.2604 152.526 57.0828 152.526 57.973C152.526 60.9658 151.71 64.6666 149.08 67.3033C146.522 69.974 143.254 71.3983 138.925 71.3983C130.9 71.3983 124.152 64.8447 124.152 56.7988C124.152 48.7529 130.9 42.1992 138.925 42.1992C143.364 42.1992 146.527 43.9457 148.903 46.2222L146.095 49.0369C144.391 47.4345 142.083 46.1882 138.921 46.1882C133.061 46.1882 128.478 50.9233 128.478 56.7988C128.478 62.6742 133.061 67.4093 138.921 67.4093C142.721 67.4093 144.886 65.879 146.273 64.4886C147.398 63.361 148.137 61.7501 148.429 59.55L138.921 59.5542V59.5542Z" fill="#4285F4"/>
<path d="M125.722 30.9999V13.5454H136.903V16.196H128.884V20.9346H136.136V23.5852H128.884V30.9999H125.722Z" fill="#5F6368"/>
<path d="M155.381 22.2727C155.381 24.1534 155.028 25.7641 154.324 27.1051C153.625 28.4403 152.671 29.463 151.46 30.1732C150.256 30.8835 148.889 31.2386 147.361 31.2386C145.832 31.2386 144.463 30.8835 143.253 30.1732C142.048 29.4573 141.094 28.4318 140.389 27.0965C139.69 25.7556 139.341 24.1477 139.341 22.2727C139.341 20.392 139.69 18.784 140.389 17.4488C141.094 16.1079 142.048 15.0823 143.253 14.3721C144.463 13.6619 145.832 13.3068 147.361 13.3068C148.889 13.3068 150.256 13.6619 151.46 14.3721C152.671 15.0823 153.625 16.1079 154.324 17.4488C155.028 18.784 155.381 20.392 155.381 22.2727ZM152.202 22.2727C152.202 20.9488 151.994 19.8323 151.58 18.9232C151.171 18.0085 150.602 17.3181 149.875 16.8522C149.148 16.3806 148.31 16.1448 147.361 16.1448C146.412 16.1448 145.574 16.3806 144.847 16.8522C144.119 17.3181 143.548 18.0085 143.134 18.9232C142.725 19.8323 142.52 20.9488 142.52 22.2727C142.52 23.5965 142.725 24.7159 143.134 25.6306C143.548 26.5397 144.119 27.2301 144.847 27.7016C145.574 28.1676 146.412 28.4005 147.361 28.4005C148.31 28.4005 149.148 28.1676 149.875 27.7016C150.602 27.2301 151.171 26.5397 151.58 25.6306C151.994 24.7159 152.202 23.5965 152.202 22.2727Z" fill="#5F6368"/>
<path d="M158.37 30.9999V13.5454H161.532V28.3494H169.22V30.9999H158.37Z" fill="#5F6368"/>
<path d="M171.964 30.9999V13.5454H175.126V28.3494H182.813V30.9999H171.964Z" fill="#5F6368"/>
<path d="M200.475 22.2727C200.475 24.1534 200.122 25.7641 199.418 27.1051C198.719 28.4403 197.764 29.463 196.554 30.1732C195.35 30.8835 193.983 31.2386 192.455 31.2386C190.926 31.2386 189.557 30.8835 188.347 30.1732C187.142 29.4573 186.188 28.4318 185.483 27.0965C184.784 25.7556 184.435 24.1477 184.435 22.2727C184.435 20.392 184.784 18.784 185.483 17.4488C186.188 16.1079 187.142 15.0823 188.347 14.3721C189.557 13.6619 190.926 13.3068 192.455 13.3068C193.983 13.3068 195.35 13.6619 196.554 14.3721C197.764 15.0823 198.719 16.1079 199.418 17.4488C200.122 18.784 200.475 20.392 200.475 22.2727ZM197.296 22.2727C197.296 20.9488 197.088 19.8323 196.673 18.9232C196.264 18.0085 195.696 17.3181 194.969 16.8522C194.242 16.3806 193.403 16.1448 192.455 16.1448C191.506 16.1448 190.668 16.3806 189.94 16.8522C189.213 17.3181 188.642 18.0085 188.227 18.9232C187.818 19.8323 187.614 20.9488 187.614 22.2727C187.614 23.5965 187.818 24.7159 188.227 25.6306C188.642 26.5397 189.213 27.2301 189.94 27.7016C190.668 28.1676 191.506 28.4005 192.455 28.4005C193.403 28.4005 194.242 28.1676 194.969 27.7016C195.696 27.2301 196.264 26.5397 196.673 25.6306C197.088 24.7159 197.296 23.5965 197.296 22.2727Z" fill="#5F6368"/>
<path d="M206.692 30.9999L201.766 13.5454H205.166L208.311 26.3721H208.473L211.831 13.5454H214.925L218.291 26.3806H218.445L221.59 13.5454H224.99L220.064 30.9999H216.945L213.45 18.7528H213.314L209.811 30.9999H206.692Z" fill="#5F6368"/>
<path d="M248.732 22.2727C248.732 24.1534 248.38 25.7641 247.676 27.1051C246.977 28.4403 246.022 29.463 244.812 30.1732C243.607 30.8835 242.241 31.2386 240.712 31.2386C239.184 31.2386 237.815 30.8835 236.604 30.1732C235.4 29.4573 234.445 28.4318 233.741 27.0965C233.042 25.7556 232.693 24.1477 232.693 22.2727C232.693 20.392 233.042 18.784 233.741 17.4488C234.445 16.1079 235.4 15.0823 236.604 14.3721C237.815 13.6619 239.184 13.3068 240.712 13.3068C242.241 13.3068 243.607 13.6619 244.812 14.3721C246.022 15.0823 246.977 16.1079 247.676 17.4488C248.38 18.784 248.732 20.392 248.732 22.2727ZM245.553 22.2727C245.553 20.9488 245.346 19.8323 244.931 18.9232C244.522 18.0085 243.954 17.3181 243.227 16.8522C242.499 16.3806 241.661 16.1448 240.712 16.1448C239.764 16.1448 238.926 16.3806 238.198 16.8522C237.471 17.3181 236.9 18.0085 236.485 18.9232C236.076 19.8323 235.872 20.9488 235.872 22.2727C235.872 23.5965 236.076 24.7159 236.485 25.6306C236.9 26.5397 237.471 27.2301 238.198 27.7016C238.926 28.1676 239.764 28.4005 240.712 28.4005C241.661 28.4005 242.499 28.1676 243.227 27.7016C243.954 27.2301 244.522 26.5397 244.931 25.6306C245.346 24.7159 245.553 23.5965 245.553 22.2727Z" fill="#5F6368"/>
<path d="M266.065 13.5454V30.9999H263.253L255.029 19.1107H254.884V30.9999H251.722V13.5454H254.551L262.767 25.4431H262.921V13.5454H266.065Z" fill="#5F6368"/>
<path d="M266.008 48.1818V69.9999H262.982L251.892 53.9985H251.689V69.9999H248.397V48.1818H251.444L262.545 64.2045H262.748V48.1818H266.008Z" fill="#5F6368"/>
<path d="M277.606 70.3302C275.994 70.3302 274.606 69.9857 273.441 69.2968C272.283 68.6008 271.388 67.6242 270.756 66.3671C270.131 65.1029 269.819 63.6221 269.819 61.9247C269.819 60.2485 270.131 58.7713 270.756 57.4928C271.388 56.2144 272.269 55.2166 273.398 54.4992C274.535 53.7819 275.863 53.4232 277.383 53.4232C278.306 53.4232 279.201 53.5759 280.067 53.8813C280.934 54.1867 281.712 54.6661 282.4 55.3195C283.089 55.973 283.633 56.8217 284.03 57.8657C284.428 58.9026 284.627 60.1633 284.627 61.6477V62.7769H271.619V60.3906H281.506C281.506 59.5525 281.335 58.8103 280.994 58.164C280.653 57.5106 280.174 56.9957 279.556 56.6193C278.945 56.2428 278.228 56.0546 277.404 56.0546C276.509 56.0546 275.728 56.2748 275.06 56.7151C274.4 57.1484 273.888 57.7166 273.526 58.4197C273.171 59.1157 272.994 59.8721 272.994 60.6889V62.5532C272.994 63.647 273.185 64.5774 273.569 65.3444C273.959 66.1115 274.503 66.6974 275.199 67.1022C275.895 67.4999 276.708 67.6988 277.638 67.6988C278.242 67.6988 278.793 67.6136 279.29 67.4431C279.787 67.2656 280.217 67.0028 280.579 66.6548C280.941 66.3068 281.218 65.8771 281.41 65.3657L284.425 65.909C284.183 66.7968 283.75 67.5745 283.125 68.2421C282.507 68.9026 281.729 69.4176 280.792 69.7869C279.861 70.1491 278.8 70.3302 277.606 70.3302Z" fill="#5F6368"/>
<path d="M291.68 69.9999L286.864 53.6363H290.156L293.363 65.6534H293.523L296.74 53.6363H300.032L303.228 65.6001H303.388L306.573 53.6363H309.865L305.06 69.9999H301.811L298.487 58.1853H298.242L294.918 69.9999H291.68Z" fill="#5F6368"/>
<path d="M325.15 57.6313L322.263 58.1427C322.142 57.7734 321.95 57.4218 321.688 57.088C321.432 56.7542 321.084 56.4808 320.644 56.2677C320.203 56.0546 319.653 55.9481 318.992 55.9481C318.09 55.9481 317.337 56.1505 316.734 56.5553C316.13 56.9531 315.828 57.468 315.828 58.1001C315.828 58.647 316.031 59.0873 316.435 59.4211C316.84 59.7549 317.494 60.0284 318.396 60.2414L320.995 60.838C322.501 61.186 323.623 61.7222 324.362 62.4467C325.1 63.1711 325.47 64.1122 325.47 65.2698C325.47 66.2499 325.185 67.1235 324.617 67.8906C324.056 68.6505 323.271 69.2471 322.263 69.6803C321.261 70.1136 320.1 70.3302 318.779 70.3302C316.947 70.3302 315.452 69.9396 314.294 69.1583C313.136 68.37 312.426 67.2514 312.163 65.8025L315.242 65.3338C315.434 66.1363 315.828 66.7436 316.425 67.1555C317.021 67.5603 317.799 67.7627 318.758 67.7627C319.802 67.7627 320.636 67.5461 321.261 67.1129C321.886 66.6725 322.199 66.1363 322.199 65.5042C322.199 64.9928 322.007 64.5632 321.624 64.2151C321.247 63.8671 320.668 63.6043 319.887 63.4268L317.117 62.8195C315.59 62.4715 314.461 61.9176 313.729 61.1576C313.005 60.3977 312.643 59.4353 312.643 58.2705C312.643 57.3046 312.913 56.4595 313.453 55.735C313.992 55.0106 314.738 54.446 315.69 54.0411C316.641 53.6292 317.732 53.4232 318.96 53.4232C320.729 53.4232 322.121 53.8068 323.136 54.5738C324.152 55.3338 324.823 56.3529 325.15 57.6313Z" fill="#5F6368"/>
<defs>
<radialGradient id="paint0_radial_1105_258" cx="0" cy="0" r="1" gradientUnits="userSpaceOnUse" gradientTransform="translate(40.8521 17.9408) scale(59.2929 59.2894)">
<stop stop-color="white" stop-opacity="0.102"/>
<stop offset="1" stop-color="white" stop-opacity="0"/>
</radialGradient>
</defs>
</svg>
